<?xml version="1.0" encoding="UTF-8"?>
<svg width="800" height="600" xmlns="http://www.w3.org/2000/svg">
<rect width="100%" height="100%" fill="white"/>
<text x="400" y="30" font-family="Arial" font-size="20" font-weight="bold" text-anchor="middle">Functions: graph y = cos(x)</text>

<!-- Axes -->
<line x1="50" y1="300" x2="750" y2="300" stroke="black" stroke-width="2"/>
<line x1="400" y1="50" x2="400" y2="550" stroke="black" stroke-width="2"/>

<!-- Grid -->
<line x1="80" y1="50" x2="80" y2="550" stroke="lightgray" stroke-width="1"/>
<line x1="120" y1="50" x2="120" y2="550" stroke="lightgray" stroke-width="1"/>
<line x1="160" y1="50" x2="160" y2="550" stroke="lightgray" stroke-width="1"/>
<line x1="50" y1="60" x2="750" y2="60" stroke="lightgray" stroke-width="1"/>
<line x1="200" y1="50" x2="200" y2="550" stroke="lightgray" stroke-width="1"/>
<line x1="50" y1="100" x2="750" y2="100" stroke="lightgray" stroke-width="1"/>
<line x1="240" y1="50" x2="240" y2="550" stroke="lightgray" stroke-width="1"/>
<line x1="50" y1="140" x2="750" y2="140" stroke="lightgray" stroke-width="1"/>
<line x1="280" y1="50" x2="280" y2="550" stroke="lightgray" stroke-width="1"/>
<line x1="50" y1="180" x2="750" y2="180" stroke="lightgray" stroke-width="1"/>
<line x1="320" y1="50" x2="320" y2="550" stroke="lightgray" stroke-width="1"/>
<line x1="50" y1="220" x2="750" y2="220" stroke="lightgray" stroke-width="1"/>
<line x1="360" y1="50" x2="360" y2="550" stroke="lightgray" stroke-width="1"/>
<line x1="50" y1="260" x2="750" y2="260" stroke="lightgray" stroke-width="1"/>
<line x1="440" y1="50" x2="440" y2="550" stroke="lightgray" stroke-width="1"/>
<line x1="50" y1="340" x2="750" y2="340" stroke="lightgray" stroke-width="1"/>
<line x1="480" y1="50" x2="480" y2="550" stroke="lightgray" stroke-width="1"/>
<line x1="50" y1="380" x2="750" y2="380" stroke="lightgray" stroke-width="1"/>
<line x1="520" y1="50" x2="520" y2="550" stroke="lightgray" stroke-width="1"/>
<line x1="50" y1="420" x2="750" y2="420" stroke="lightgray" stroke-width="1"/>
<line x1="560" y1="50" x2="560" y2="550" stroke="lightgray" stroke-width="1"/>
<line x1="50" y1="460" x2="750" y2="460" stroke="lightgray" stroke-width="1"/>
<line x1="600" y1="50" x2="600" y2="550" stroke="lightgray" stroke-width="1"/>
<line x1="50" y1="500" x2="750" y2="500" stroke="lightgray" stroke-width="1"/>
<line x1="640" y1="50" x2="640" y2="550" stroke="lightgray" stroke-width="1"/>
<line x1="50" y1="540" x2="750" y2="540" stroke="lightgray" stroke-width="1"/>
<line x1="680" y1="50" x2="680" y2="550" stroke="lightgray" stroke-width="1"/>
<line x1="720" y1="50" x2="720" y2="550" stroke="lightgray" stroke-width="1"/>

<text x="770" y="320" font-family="Arial" font-size="14">x</text>
<text x="385" y="40" font-family="Arial" font-size="14">y</text>
<polyline points="300.0,50.0 305.0,74.375 310.0,97.5 315.0,119.375 320.0,140.0 325.0,159.375 330.0,177.5 335.0,194.375 340.0,210.0 345.0,224.375 350.0,237.5 355.0,249.375 360.0,260.0 365.0,269.375 370.0,277.5 375.0,284.375 380.0,290.0 385.0,294.375 390.0,297.5 395.0,299.375 400.0,300.0 405.0,299.375 410.0,297.5 415.0,294.375 420.0,290.0 425.0,284.375 430.0,277.5 435.0,269.375 440.0,260.0 445.0,249.375 450.0,237.5 455.0,224.375 460.0,210.0 465.0,194.375 470.0,177.5 475.0,159.375 480.0,140.0 485.0,119.375 490.0,97.5 495.0,74.375 500.0,50.0" fill="none" stroke="blue" stroke-width="3"/>
<text x="100" y="100" font-family="Arial" font-size="16" fill="blue">f(x) = x²</text>
</svg>